<?xml version="1.0" encoding="UTF-8"?><svg id="Layer_2" xmlns="http://www.w3.org/2000/svg" viewBox="0 0 227.26 63.01"><defs><style>.cls-1{fill:#231f20;stroke-width:0px;}</style></defs><g id="Layer_1-2"><path class="cls-1" d="m0,30.03c.14-8.93,3.89-15.77,7.42-19.23,1.51-1.51,3.1-.86,2.52,1.37-.79,3.24-1.22,7.27-1.3,11.38-.14,11.16,3.96,16.56,11.52,16.99,2.02.14,3.89-.43,4.82-.29s1.01,1.15.36,2.09c-2.09,2.95-7.13,6.62-9,6.62C4.54,48.96-.21,40.04,0,30.03Zm19.51-11.52c.36-6.84-2.81-10.73-7.56-11.88-1.3-.29-1.37-1.08-.65-2.02,1.44-1.87,5.33-4.61,6.91-4.61,2.66,0,9.65,3.74,9.5,11.74,0,1.58,0,2.74-1.08,3.89-1.66,1.8-3.53,3.1-5.18,3.89-1.3.58-2.02.29-1.94-1.01Z"/><path class="cls-1" d="m28.52,35.71c-.29-7.27,2.66-12.39,5.62-14.69,1.08-.94,2.09-.5,1.87,1.08-.22,1.73-.29,4.54-.14,7.85.58,9.65,6.12,12.24,9.36,13.32.86.29.94,1.08.43,1.73-1.51,2.02-4.68,3.96-5.76,3.96-6.62,0-11.09-5.04-11.38-13.25Zm18.58,3.38c.14-1.73.29-4.54.07-7.85-.58-9.65-6.12-12.24-9.29-13.32-.94-.29-1.01-1.08-.5-1.73,1.51-2.09,4.68-3.96,5.76-3.96,6.62,0,11.09,5.04,11.38,13.25.29,7.27-2.66,12.38-5.62,14.69-1.08.94-1.94.5-1.8-1.08Z"/><path class="cls-1" d="m59.84,39.46c0-4.18.36-10.87.36-14.11,0-5.11-2.09-6.12-2.09-7.56,0-1.15,5.18-5.54,6.62-5.54,1.58,0,3.6,3.24,3.67,7.2.07,5.18-.36,12.17-.29,16.85.07,4.46,1.44,6.48,2.88,7.63.36.29.43.94.07,1.3-1.15,1.15-4.75,3.74-5.76,3.74-2.81,0-5.47-3.38-5.47-9.5Zm15.99,0c-.07-4.18.36-11.45.22-16.42-.07-2.81-1.3-4.82-3.82-5.54-.79-.22-.94-.94-.29-1.58,1.8-1.8,4.82-3.89,6.19-3.67,3.31.5,6.12,3.17,6.26,7.63.14,4.75-.29,11.09-.29,16.42,0,4.1,1.44,6.48,2.88,7.63.36.29.43.94.07,1.3-1.15,1.15-4.75,3.74-5.76,3.74-2.81,0-5.4-3.74-5.47-9.5Zm15.63,0c-.07-4.18.36-11.45.22-16.42-.07-2.81-1.51-4.82-4.03-5.54-.79-.22-.94-.94-.29-1.58,1.8-1.8,4.82-3.89,6.19-3.67,3.31.5,6.34,3.17,6.48,7.63.14,4.75-.29,11.09-.29,16.42,0,4.46,1.8,6.48,3.24,7.63.36.29.43.94.07,1.3-1.15,1.15-4.75,3.74-5.76,3.74-2.81,0-5.76-3.38-5.83-9.5Z"/><path class="cls-1" d="m124.13,44.79c-.65,1.15-4.25,4.18-5.9,4.18-.65,0-1.3-.22-1.94-.58v1.37c.14,5.04,2.09,7.06,3.53,8.21.36.29.43.94.07,1.3-1.08,1.15-4.68,3.74-5.69,3.74-2.81,0-5.98-3.38-6.12-9.07-.22-7.49.36-22.47.14-28.15-.14-5.54-2.3-6.62-2.38-7.99,0-1.15,5.11-5.54,6.55-5.54,1.58,0,3.82,3.24,3.96,7.99.14,4.82,0,11.81-.07,18.29.29,3.67,4.03,4.61,7.13,4.82.86.07,1.08.86.72,1.44Zm3.1-4.82c-1.3.94-2.23.36-2.02-.94.65-2.81,1.01-6.34.94-9.43-.14-7.2-3.17-10.22-6.12-11.52-.65-.29-1.01-.94-.5-1.51,1.3-1.73,4.61-4.32,5.76-4.32,4.82,0,8.64,5.69,8.78,12.96.14,7.85-3.74,12.6-6.84,14.76Z"/><path class="cls-1" d="m137.09,39.68c0-6.48,5.18-11.88,11.3-13.75.94-.29,1.37-.14,1.66.36.29.58,0,1.01-.94,1.94-1.73,1.73-3.67,4.82-3.67,8.28s1.08,5.83,4.46,7.27c.72.29,1.01.86.5,1.44-1.37,1.73-4.1,3.74-5.11,3.74-5.62,0-8.21-4.46-8.21-9.29Zm15.99.79c0-5.33.29-12.75.14-15.84-.14-3.67-2.02-5.33-5.33-5.4-3.38-.07-5.4.72-7.13.94-1.08.14-1.44-.22-1.3-1.01.22-1.01,1.87-4.82,3.31-5.54,1.73-.86,4.03-1.58,8.86-1.3,5.54.36,9.58,4.03,9.72,9.5.14,5.26,0,10.51,0,14.47,0,4.46,1.8,6.48,3.24,7.63.36.29.43.94.07,1.3-1.15,1.15-4.75,3.74-5.76,3.74-2.81,0-5.83-3.38-5.83-8.5Z"/><path class="cls-1" d="m169.42,39.46c0-4.18.36-10.87.36-14.11,0-5.11-2.09-6.12-2.09-7.56,0-1.15,5.18-5.54,6.62-5.54,1.58,0,3.6,3.24,3.67,7.2.07,5.18-.36,12.17-.29,16.85.07,4.46,1.44,6.48,2.88,7.63.36.29.43.94.07,1.3-1.15,1.15-4.75,3.74-5.76,3.74-2.81,0-5.47-3.38-5.47-9.5Zm16.35,0c-.07-4.18.36-11.45.22-16.42-.07-2.81-1.66-4.82-4.18-5.54-.79-.22-.94-.94-.29-1.58,1.8-1.8,4.82-3.89,6.19-3.67,3.31.5,6.48,3.17,6.62,7.63.14,4.75-.29,11.09-.29,16.42,0,4.46,1.8,6.48,3.24,7.63.36.29.43.94.07,1.3-1.15,1.15-4.75,3.74-5.76,3.74-2.81,0-5.76-3.38-5.83-9.5Z"/><path class="cls-1" d="m199.52,62.5c-.86-.22-1.08-.86-.79-1.37.72-1.3,4.03-4.68,5.4-5.69.5-.36.94-.36,1.66-.22,2.3.43,4.68.65,6.55.65s2.59-.14,3.46-.14c.65,0,1.01.58.58,1.37-2.09,3.74-5.69,5.9-10.44,5.9-1.94,0-5.18-.22-6.41-.5Zm2.38-22.97c0-5.26.29-10.66.29-14.69,0-4.61-2.16-5.62-2.16-7.06,0-1.15,5.18-5.54,6.62-5.54,1.58,0,3.46,2.95,3.6,6.91.14,4.32-.22,13.39-.14,17.93.07,3.74,1.73,5.47,4.46,6.41.79.29.86.86.29,1.58-1.58,1.8-4.82,4.1-6.19,3.89-3.96-.65-6.77-4.18-6.77-9.43Zm16.13,12.1c1.01-2.59.94-5.69,1.01-9,.14-5.62.07-10.37-.22-16.99-.22-5.54-2.3-6.48-2.3-7.85,0-1.15,5.18-5.54,6.62-5.54,1.58,0,3.67,3.1,3.82,7.99.22,6.7.43,13.68.22,20.23-.14,4.97-4.18,10.01-6.98,12.31-1.58,1.3-2.74.36-2.16-1.15Z"/></g></svg>