<?xml version="1.0" encoding="UTF-8"?><svg id="Layer_2" xmlns="http://www.w3.org/2000/svg" viewBox="0 0 205.59 86.91"><defs><style>.cls-1{fill:#231f20;stroke-width:0px;}</style></defs><g id="Layer_1-2"><path class="cls-1" d="m48.88,36.26c-.08.36-.22.8-.4,1.32-.19.52-.42,1.09-.7,1.72s-.63,1.29-1.05,1.97c-1.17,1.97-2.55,3.66-4.15,5.08-1.59,1.42-3.33,2.6-5.22,3.53-1.89.94-3.9,1.63-6.03,2.07-2.13.44-4.32.67-6.57.67-3.47,0-6.71-.5-9.72-1.51-3.01-1.01-5.63-2.48-7.86-4.43-2.23-1.95-3.98-4.35-5.26-7.22-1.28-2.87-1.92-6.18-1.92-9.93,0-2.55.39-5.06,1.16-7.52s1.84-4.79,3.2-6.98c1.36-2.19,2.98-4.21,4.85-6.05,1.88-1.84,3.92-3.42,6.13-4.75,2.21-1.32,4.55-2.36,7.01-3.11,2.46-.75,4.97-1.12,7.52-1.12,1.24,0,2.62.08,4.15.25,1.52.16,2.95.51,4.29,1.04s2.46,1.29,3.36,2.29c.9,1,1.35,2.33,1.35,3.99,0,1.5-.27,2.88-.81,4.15-.54,1.27-1.17,2.37-1.88,3.32-.72.95-1.44,1.72-2.16,2.32-.73.6-1.27.99-1.62,1.18-.26.12-.52.19-.79.23-.27.04-.51.05-.72.05-.66,0-1.1-.15-1.32-.44-.22-.29-.33-.74-.33-1.35,0-.35.04-.74.11-1.16s.16-.83.26-1.21.23-.73.39-1.04c.15-.3.31-.54.47-.7.12-.14.28-.35.49-.62.21-.27.42-.59.62-.97.2-.37.37-.79.53-1.25.15-.46.23-.93.23-1.42,0-1.08-.21-1.97-.63-2.69-.42-.71-.98-1.28-1.69-1.71s-1.5-.72-2.39-.9c-.89-.18-1.79-.26-2.71-.26-2.18,0-4.3.36-6.36,1.07-2.06.72-4.01,1.69-5.84,2.94-1.83,1.24-3.5,2.71-5.03,4.39-1.52,1.69-2.83,3.51-3.92,5.47-1.09,1.96-1.94,3.99-2.55,6.1-.61,2.11-.91,4.22-.91,6.33,0,2.74.56,5.27,1.67,7.59,1.11,2.32,2.6,4.32,4.46,6.01s4.01,3,6.45,3.94c2.44.94,4.98,1.41,7.63,1.41,2.44,0,4.68-.25,6.71-.74s3.93-1.24,5.68-2.23c1.75-1,3.36-2.24,4.83-3.73,1.48-1.49,2.88-3.22,4.22-5.19.4-.59.72-1.04.97-1.35s.56-.47.93-.47c.19.05.4.15.63.32.23.16.35.35.35.56,0,.14-.04.39-.12.76Z"/><path class="cls-1" d="m68.55,36.14c-.3.54-.67,1.07-1.11,1.6-.43.53-.89,1.01-1.37,1.44-.48.43-.9.74-1.25.93v.88c0,1.5-.3,2.87-.91,4.11-.61,1.24-1.42,2.31-2.43,3.22-1.01.9-2.17,1.61-3.5,2.11-1.32.5-2.71.76-4.17.76-1.29,0-2.51-.21-3.66-.62-1.15-.41-2.16-.99-3.02-1.74-.87-.75-1.56-1.67-2.07-2.76-.52-1.09-.77-2.3-.77-3.64,0-1.55.28-2.98.83-4.31.55-1.32,1.31-2.46,2.27-3.41.96-.95,2.1-1.69,3.43-2.23,1.32-.54,2.76-.81,4.31-.81.35,0,.75.02,1.2.05.44.04.9.11,1.35.21s.88.25,1.28.42c.4.18.7.4.91.69.98.4,1.83.95,2.53,1.65s1.28,1.52,1.72,2.46c.42-.16.86-.44,1.32-.83s.9-.78,1.32-1.18c.42-.4.79-.75,1.09-1.05s.5-.46.6-.46c.21,0,.36.13.44.39.08.26.12.48.12.67,0,.42-.15.9-.46,1.44Zm-9.49,3.34c-.7-.62-1.05-1.43-1.05-2.44,0-.26.02-.5.07-.74.05-.23.14-.44.28-.63-.54-.28-1.12-.48-1.76-.6s-1.25-.18-1.86-.18c-.91,0-1.77.19-2.57.58-.8.39-1.49.89-2.09,1.52s-1.07,1.36-1.42,2.19-.53,1.69-.53,2.58c0,.82.18,1.55.54,2.21.36.65.84,1.21,1.42,1.67.59.46,1.25.8,1.99,1.03.74.23,1.48.35,2.23.35.98,0,1.91-.14,2.78-.42.87-.28,1.63-.69,2.29-1.23.66-.54,1.18-1.2,1.56-2,.39-.79.58-1.72.58-2.77-.94-.14-1.76-.52-2.46-1.14Z"/><path class="cls-1" d="m107.98,46.12c-.36.77-.83,1.49-1.39,2.16s-1.2,1.23-1.9,1.67c-.7.45-1.39.67-2.07.67-1.34,0-2.36-.33-3.08-.98-.72-.66-1.25-1.47-1.62-2.44-.36-.97-.6-2.02-.7-3.13-.11-1.11-.21-2.14-.3-3.08-.02-.21-.05-.51-.07-.9-.02-.39-.07-.78-.14-1.18-.07-.4-.19-.74-.35-1.04-.16-.29-.39-.44-.67-.44-.26,0-.6.31-1.02.93-.42.62-.88,1.41-1.37,2.36s-1.01,1.97-1.55,3.06c-.54,1.09-1.07,2.11-1.58,3.06-.52.95-1.01,1.73-1.48,2.36-.47.62-.87.93-1.2.93-.77,0-1.4-.31-1.88-.93-.48-.62-.87-1.41-1.18-2.36-.3-.95-.54-1.97-.7-3.06-.16-1.09-.33-2.11-.49-3.06-.16-.95-.35-1.73-.56-2.36-.21-.62-.5-.93-.88-.93-.4,0-.82.35-1.27,1.04-.45.69-.93,1.55-1.44,2.58-.52,1.03-1.05,2.16-1.6,3.38-.55,1.22-1.12,2.34-1.71,3.38-.59,1.03-1.2,1.89-1.83,2.58s-1.28,1.04-1.93,1.04-1.18-.3-1.63-.9-.84-1.35-1.14-2.27c-.3-.91-.54-1.94-.72-3.08-.18-1.14-.31-2.24-.4-3.32-.09-1.08-.15-2.07-.18-2.97-.02-.9-.04-1.58-.04-2.02,0-.35.02-.8.07-1.35.05-.55.16-1.09.33-1.62s.42-.98.74-1.35c.32-.37.73-.56,1.25-.56s.88.12,1.16.35c.28.23.49.53.63.88s.22.74.25,1.16c.02.42.04.82.04,1.2,0,1.31-.11,2.62-.32,3.94-.21,1.31-.32,2.64-.32,3.97,0,.21.01.44.04.69.02.25.07.47.14.69s.18.39.33.53c.15.14.36.21.62.21.4,0,.82-.32,1.27-.95.44-.63.93-1.42,1.44-2.37.52-.95,1.07-1.98,1.65-3.09.59-1.11,1.22-2.14,1.9-3.09.68-.95,1.41-1.74,2.18-2.37s1.59-.95,2.46-.95,1.58.31,2.13.93c.55.62.98,1.37,1.3,2.23.32.87.54,1.77.69,2.71.14.94.22,1.72.25,2.36.02.09.05.28.09.56s.08.57.12.88c.05.3.11.58.19.83.08.25.17.37.26.37.16,0,.39-.27.69-.81.29-.54.64-1.21,1.05-2,.41-.8.87-1.67,1.39-2.62.52-.95,1.08-1.82,1.69-2.62.61-.8,1.26-1.46,1.95-2,.69-.54,1.41-.81,2.16-.81,1.03,0,1.8.35,2.3,1.04.5.69.86,1.55,1.07,2.58.21,1.03.33,2.15.37,3.36.04,1.21.11,2.33.23,3.36.12,1.03.33,1.89.63,2.58.3.69.83,1.04,1.58,1.04.42,0,.83-.23,1.21-.7.39-.47.73-.98,1.04-1.53.3-.55.57-1.06.79-1.53.22-.47.38-.7.47-.7.14,0,.28.07.4.21.13.14.25.3.35.49.11.19.19.38.25.58.06.2.09.36.09.47,0,.63-.18,1.34-.54,2.11Z"/><path class="cls-1" d="m129.04,44.81c-.67,1.28-1.56,2.34-2.67,3.2-1.11.86-2.4,1.49-3.85,1.92-1.45.42-2.98.63-4.57.63h-.69c-.32,0-.54-.02-.69-.07-.23-.07-.47-.22-.7-.44-.23-.22-.43-.47-.6-.76-.16-.28-.3-.57-.4-.88-.11-.3-.16-.57-.16-.81,0-.12.09-.21.26-.28s.37-.13.6-.19c.22-.06.43-.11.63-.14.2-.04.32-.06.37-.09.89-.19,1.86-.41,2.9-.67,1.04-.26,2.02-.63,2.92-1.11.9-.48,1.66-1.1,2.27-1.85.61-.75.91-1.71.91-2.88,0-.61-.12-1.18-.35-1.71-.23-.53-.55-.98-.95-1.37-.4-.39-.87-.69-1.42-.91-.55-.22-1.13-.33-1.74-.33-.98,0-1.88.21-2.69.63s-1.54.99-2.2,1.71c-.66.72-1.24,1.52-1.74,2.43-.5.9-.94,1.83-1.3,2.78-.36.95-.67,1.89-.91,2.83-.25.94-.44,1.78-.58,2.53-.07.4-.15.81-.23,1.25-.08.43-.12.84-.12,1.21,0,3.54.09,7.06.28,10.56.19,3.5.28,7.01.28,10.53v2.02c0,.74-.01,1.49-.04,2.27-.02.77-.07,1.53-.14,2.27s-.18,1.4-.32,1.99c-.09.44-.32.9-.69,1.35-.36.46-.81.69-1.35.69-.19,0-.38-.09-.58-.26-.2-.18-.38-.39-.53-.63-.15-.25-.29-.5-.42-.76-.13-.26-.22-.46-.26-.6-.14-.52-.26-1.22-.35-2.11-.09-.89-.18-1.87-.25-2.94-.07-1.07-.12-2.18-.14-3.34-.02-1.16-.05-2.29-.07-3.38-.02-1.09-.04-2.1-.04-3.02v-2.27c0-4.45.05-8.92.14-13.41.09-4.49.3-8.95.63-13.38,0-.23.04-.56.12-.98.08-.42.21-.84.39-1.25.18-.41.39-.77.63-1.07.25-.3.54-.46.9-.46.49,0,.84.17,1.05.51.21.34.35.74.4,1.21.06.47.07.94.04,1.42-.04.48-.05.87-.05,1.18v4.39c.56-1.12,1.19-2.22,1.88-3.29.69-1.07,1.48-2.02,2.37-2.85.89-.83,1.89-1.51,3.01-2.02,1.11-.52,2.36-.77,3.74-.77,1.05,0,2.06.16,3.02.49.96.33,1.82.81,2.57,1.44.75.63,1.35,1.4,1.79,2.3.44.9.67,1.92.67,3.04,0,1.71-.33,3.21-1,4.48Z"/><path class="cls-1" d="m162.33,46.02c-.41.91-.95,1.73-1.62,2.46-.67.73-1.44,1.31-2.3,1.76-.87.44-1.77.67-2.71.67-.73,0-1.37-.11-1.92-.32-.55-.21-1.05-.49-1.49-.84-.45-.35-.86-.76-1.25-1.23-.39-.47-.78-.96-1.18-1.48-1.17,1.45-2.54,2.58-4.11,3.39-1.57.81-3.29,1.21-5.17,1.21-1.31,0-2.51-.22-3.59-.65-1.08-.43-2-1.05-2.76-1.85-.76-.8-1.35-1.74-1.76-2.83-.41-1.09-.62-2.29-.62-3.6s.22-2.44.65-3.53c.43-1.09,1.02-2.09,1.78-2.99.75-.9,1.62-1.71,2.62-2.41,1-.7,2.06-1.29,3.18-1.78,1.12-.48,2.29-.84,3.48-1.09s2.36-.37,3.48-.37c.19,0,.39.01.62.04.22.02.43.08.62.16.19.08.34.19.46.33.12.14.18.34.18.6,0,.23-.09.43-.26.58-.18.15-.39.28-.63.37-.25.09-.5.16-.76.19-.26.04-.47.06-.63.09-1.27.23-2.5.6-3.71,1.09-1.21.49-2.27,1.12-3.2,1.9-.93.77-1.68,1.71-2.25,2.79-.57,1.09-.86,2.36-.86,3.81,0,.77.15,1.48.44,2.11.29.63.69,1.18,1.2,1.63.5.46,1.09.81,1.76,1.05s1.37.37,2.09.37c1.34,0,2.56-.37,3.67-1.11,1.11-.74,2.07-1.61,2.87-2.62-.19-.73-.32-1.46-.39-2.21-.07-.75-.11-1.5-.11-2.25,0-.49.02-1.06.05-1.71.04-.64.14-1.26.32-1.85.18-.59.45-1.08.83-1.48.37-.4.9-.6,1.58-.6.54,0,.95.19,1.25.58.29.39.52.84.67,1.37.15.53.25,1.08.28,1.65.04.57.05,1.05.05,1.42,0,.89-.15,1.82-.46,2.78-.3.96-.66,1.84-1.05,2.64.35.8.84,1.44,1.46,1.93.62.49,1.38.74,2.27.74.77,0,1.44-.09,2-.26s1.05-.44,1.48-.81c.42-.36.79-.81,1.11-1.34s.62-1.14.9-1.85c.05-.07.09-.18.14-.32.05-.14.11-.28.19-.4.08-.13.17-.25.26-.35.09-.11.21-.16.35-.16.19,0,.35.07.47.21.13.14.25.3.35.49.11.19.18.39.23.6.05.21.07.38.07.49,0,.91-.21,1.83-.62,2.74Z"/><path class="cls-1" d="m186.59,46.14c-.34.76-.79,1.48-1.34,2.16-.55.68-1.16,1.25-1.83,1.71s-1.34.69-2.02.69c-1.41,0-2.49-.32-3.25-.95-.76-.63-1.32-1.42-1.69-2.37-.36-.95-.59-2-.69-3.15-.09-1.15-.19-2.23-.28-3.23-.02-.16-.05-.44-.07-.83-.02-.39-.07-.77-.14-1.16s-.18-.73-.32-1.04c-.14-.3-.35-.46-.63-.46-.38,0-.79.35-1.25,1.04-.46.69-.94,1.55-1.44,2.58-.5,1.03-1.03,2.16-1.58,3.38-.55,1.22-1.12,2.34-1.72,3.38-.6,1.03-1.21,1.89-1.85,2.58s-1.28,1.04-1.93,1.04-1.18-.29-1.63-.88-.84-1.34-1.14-2.27c-.3-.93-.54-1.95-.72-3.06-.18-1.11-.31-2.2-.4-3.27-.09-1.07-.15-2.04-.18-2.94-.02-.89-.04-1.56-.04-2,0-.35.02-.81.07-1.37.05-.56.16-1.11.33-1.63s.42-.98.74-1.37.73-.58,1.25-.58.88.11,1.16.33c.28.22.49.51.63.86s.22.73.25,1.14c.02.41.04.8.04,1.18,0,1.34-.11,2.67-.32,3.99-.21,1.32-.32,2.63-.32,3.92,0,.21.01.44.04.69.02.25.07.47.14.69s.18.39.33.53c.15.14.36.21.62.21.4,0,.83-.32,1.28-.95s.94-1.42,1.46-2.37c.52-.95,1.07-1.98,1.65-3.09.59-1.11,1.22-2.14,1.9-3.09.68-.95,1.4-1.74,2.16-2.37.76-.63,1.58-.95,2.44-.95,1.03,0,1.79.35,2.29,1.04.49.69.84,1.55,1.05,2.58.21,1.03.33,2.16.37,3.38.04,1.22.11,2.34.23,3.38.12,1.03.33,1.89.65,2.58.32.69.85,1.04,1.6,1.04.44,0,.86-.22,1.25-.67.39-.44.73-.94,1.04-1.49.3-.55.57-1.05.79-1.49.22-.44.39-.67.51-.67s.23.06.35.18c.12.12.22.26.32.44.09.18.18.35.25.53s.11.32.11.44c0,.61-.17,1.3-.51,2.06Z"/><path class="cls-1" d="m205.56,74.69c-.02,1.23-.07,2.5-.14,3.81-.07,1.31-.18,2.55-.33,3.71-.15,1.16-.37,2.03-.65,2.62-.07.19-.18.4-.32.63-.14.23-.31.46-.51.67-.2.21-.41.39-.63.54-.22.15-.45.23-.69.23-.54,0-.98-.21-1.34-.62-.35-.41-.6-.85-.74-1.32-.14-.42-.25-1.04-.33-1.85-.08-.81-.14-1.66-.18-2.57-.04-.9-.06-1.78-.07-2.64-.01-.86-.02-1.53-.02-2.02,0-2.74.07-5.48.21-8.21.14-2.73.3-5.47.47-8.21s.33-5.49.47-8.24.21-5.5.21-8.24c0-.23,0-.53-.02-.9-.01-.36-.06-.72-.14-1.07-.08-.35-.21-.65-.39-.9s-.43-.37-.76-.37c-.42,0-.87.28-1.34.84-.47.56-.96,1.27-1.48,2.11-.52.84-1.05,1.76-1.6,2.76-.55,1-1.12,1.92-1.71,2.76-.59.84-1.19,1.55-1.81,2.11-.62.56-1.26.84-1.92.84s-1.2-.23-1.71-.7c-.5-.47-.95-1.07-1.34-1.79-.39-.73-.73-1.55-1.02-2.46-.29-.91-.54-1.82-.74-2.71-.2-.89-.36-1.72-.49-2.5-.13-.77-.24-1.39-.33-1.86-.12-.54-.26-1.17-.44-1.88-.18-.71-.26-1.33-.26-1.85,0-.23.09-.47.28-.72.19-.25.42-.47.69-.67.27-.2.55-.36.84-.49.29-.13.54-.19.76-.19.3,0,.52.06.65.19.13.13.25.32.37.58.12.3.26.82.44,1.55.18.73.36,1.54.56,2.44.2.9.41,1.85.63,2.83.22.98.46,1.88.7,2.69s.5,1.48.77,2c.27.53.53.79.79.79.35,0,.73-.32,1.12-.95.4-.63.83-1.42,1.28-2.36.46-.94.94-1.96,1.46-3.06.52-1.1,1.06-2.12,1.63-3.06.57-.94,1.18-1.72,1.81-2.36s1.29-.95,1.97-.95,1.26.25,1.74.74c.48.49.87,1.12,1.18,1.9.3.77.54,1.63.72,2.58s.31,1.89.4,2.83c.09.94.16,1.81.19,2.6.04.8.06,1.44.09,1.93.21,4.29.43,8.53.65,12.73.22,4.2.33,8.45.33,12.76,0,.7-.01,1.67-.04,2.9Z"/></g></svg>