<?xml version="1.0" encoding="UTF-8"?><svg id="Layer_2" xmlns="http://www.w3.org/2000/svg" viewBox="0 0 783.25 783.24"><defs><style>.cls-1{fill:#fff;stroke-width:0px;}</style></defs><g id="circle"><path class="cls-1" d="m0,391.44C.04,175.1,176.04-.12,393.17,0c214.88.12,390.28,176.62,390.09,392.52-.19,215.18-176.59,391.05-391.92,390.72C175.4,782.91-.04,607.26,0,391.44Z"/></g><g id="stroke"><path class="cls-1" d="m0,391.44C.04,175.1,176.04-.12,393.17,0c214.88.12,390.28,176.62,390.09,392.52-.19,215.18-176.59,391.05-391.92,390.72C175.4,782.91-.04,607.26,0,391.44Zm748,.64c0-196.49-159.65-356.71-355.54-356.83-196.28-.13-354.48,157.59-357.13,351.17-2.74,200.2,158.98,361.36,356.21,361.56,196.03.2,356.46-160.04,356.46-355.9Z"/></g><g id="hay"><path class="cls-1" d="m611.92,616.01c-25.98-28.33-51.92-56.7-78.04-84.9-3.21-3.47-3.8-6.2-2.45-10.9,2.5-8.68,4.58-17.72,5.04-26.7,1.39-27.3-6.52-52.53-19.38-76.3-4.77-8.82-10.19-17.28-15.85-26.83-18.37,24-26.69,49.6-21.81,79.01l-1.31.63c-4.41-4.8-8.68-9.74-13.26-14.38-2.72-2.76-3.41-5.55-2.78-9.41,3.66-22.39,3.95-44.98-2.87-66.64-5.26-16.7-17.66-36.29-21.45-42.27-4.08-6.42-13.41-18.9-13.41-18.9,0,0-12.14,9.3-12.79,38.02-1.06,12.94-2,24.36-3.09,37.56-5.49-6-10.15-11.1-15.24-16.65-1.61-2.13-1.85-6.93-1.61-9.61,0,0,2.86-21.04,1.43-35.44-5.82-34.54-28.45-57.72-47.7-84.52-3.46,22.24-6.7,43.03-10.14,65.11-2.53-2.19-3.96-3.25-5.16-4.51-3.78-3.99-7.29-8.26-11.27-12.03-2.59-2.47-2.59-4.85-1.88-8.03,1.79-8.06,3.94-16.15,4.58-24.34,1.5-19.2-4.71-36.41-15.86-51.8-9.36-12.92-19.25-25.44-28.93-38.12-.24-.31-.77-.4-1.43-.73-10.26,20.24-12.98,41.49-9.69,63.85-10.13-20.31-19.89-40.37-36.05-56.15-16.52-16.13-37.04-23.94-60.44-27.86,2.36,6.72,4.47,11.95,6.05,17.33,5.45,18.57,12.29,36.5,23.29,52.6,10.4,15.22,23.85,25.73,42.75,28.07,5.24.65,11.5.3,15.39,3.07,6.55,4.68,11.47,11.64,17.14,17.56l-.74,1.45c-26.49-3.98-49.44,2.05-67.63,22.35,15.88,16.57,34.58,27.79,56.62,33.28,18.8,4.68,37.51,3.24,56.22-.79,2.31-.5,5.85-.61,7.23.74,6.97,6.8,13.43,14.13,19.98,21.34.55.6.5,1.75.82,3-26.24,1.65-52.83,1.14-73.43,22.44,18.95,13.74,38.99,24.04,61.72,31.39,17.6,5.37,31.67,3.53,33.41,2.94,6.86-2.31,13.96-4.01,20.57-6.85,2.91-1.25,4.34-1.27,6.32.93,7.89,8.8,15.87,17.52,23.84,26.25,3.19,3.5,6.45,6.93,9.68,10.39l-.78,1.11c-14.44-6.09-29.31-8.44-44.84-6.55-15.5,1.88-30.28,5.82-45.37,13.16,1.56,1.01,2.17,1.33,2.68,1.76,19.21,16.11,39.81,29.93,63.45,38.78,22.8,8.53,45.96,11.33,69.82,4.7,1.51-.42,4.08.81,5.35,2.08,4.71,4.69,9.1,9.72,13.59,14.63,2.79,3.05,5.55,6.12,8.33,9.18l-.8,1.24c-33.27-11.05-62.7-3.07-90.67,17.11,3.45,2.04,6.06,3.45,8.52,5.07,20.49,13.49,41.89,24.82,66.29,29.63,19.1,3.77,37.96,3.48,56.5-2.7,3.54-1.18,5.8-.82,8.29,1.93,10.25,11.37,20.66,22.59,31.02,33.86,7.4,8.05,14.8,16.09,22.46,24.42,4.25-4.01,8.05-7.6,11.99-11.33-1-1.23-1.57-2.03-2.23-2.74Z"/></g><g id="needle"><path class="cls-1" d="m604.66,132.38c-6.78-5.88-14.06-6.66-24.46-3.63-10.14,2.95-37.75,39.57-47.11,52.67-40.4,56.55-306.66,392.77-364.48,465.25,4.09,3.36,7.78,6.39,11.67,9.57,1.29-1.36,377.37-430.53,431.26-495.99,4.24-5.15,3.24-12.58,2.32-16.45-.7-2.97-5.63-8.33-9.19-11.42Zm-9.48,24.37c-11.26,14.18-22.73,28.2-34.22,42.2-2.08,2.53-8.71,3.56-12.35.66-3.85-3.07-5.12-8.57-2.11-12.21,11.65-14.08,23.27-28.19,35.21-42.03,3.38-3.92,8.99-3.93,12.57-.77,3.39,3,4.07,8.15.89,12.15Z"/></g></svg>