<?xml version="1.0" encoding="UTF-8"?>
<svg id="Layer_2" xmlns="http://www.w3.org/2000/svg" viewBox="0 0 60.2 55.02">
	<path d="m33.47,9.59c-7.21-5.99-17.9-5-23.89,2.21-5.99,7.21-5,17.9,2.21,23.89,6.31,5.24,15.46,5.22,21.74-.05,7.18-6.01,8.13-16.7,2.12-23.88-.66-.79-1.39-1.52-2.18-2.17Zm2.25,20.32c-.88,1.61-2.06,3.03-3.47,4.2-6.33,5.3-15.76,4.46-21.06-1.87s-4.46-15.76,1.87-21.06c6.33-5.3,15.76-4.46,21.06,1.87,3.97,4.75,4.61,11.45,1.6,16.86Z"/>
	<path d="m25.65,10.78c-.54-.13-1.08.19-1.21.73-.13.54.19,1.08.73,1.21h0c3.5.86,6.28,3.51,7.31,6.96.15.53.7.84,1.23.69.53-.15.84-.7.69-1.23,0-.01,0-.02-.01-.04-1.26-4.11-4.57-7.26-8.73-8.33Z"/>
	<path d="m20.89,10.54c-.6.09-1.19.22-1.76.4-.53.15-.85.7-.7,1.23.15.53.7.85,1.23.7.02,0,.03,0,.05-.01.48-.15.98-.26,1.48-.33.55-.08.92-.59.84-1.14s-.59-.92-1.14-.84h0Z"/>
	<path d="m57.38,41.25c-4.61-3.3-9.5-6.2-14.61-8.65,5.54-11.16.99-24.7-10.17-30.24C21.44-3.18,7.9,1.37,2.36,12.53c-5.54,11.16-.99,24.7,10.17,30.24,7.68,3.82,16.87,2.95,23.7-2.25,3.37,4.56,7.13,8.81,11.25,12.72,1.39,1.16,3.14,1.79,4.94,1.79.25,0,.5-.01.75-.04,4.28-.4,7.41-4.2,7.01-8.47-.19-2.06-1.2-3.95-2.79-5.26Zm-47.75-2.83C.92,31.22-.3,18.32,6.9,9.61c3.46-4.18,8.43-6.82,13.84-7.34.66-.06,1.32-.09,1.98-.09,11.29.02,20.43,9.19,20.41,20.48,0,3.47-.9,6.89-2.59,9.92-1.21,2.2-2.82,4.15-4.75,5.75-7.55,6.35-18.56,6.39-26.15.09Zm28.68.3c.14-.13.28-.26.41-.4.44-.44.86-.9,1.25-1.38s.76-.98,1.12-1.49c.11-.16.21-.32.32-.48.14-.21.28-.41.41-.62,1.53.72,3.1,1.55,4.63,2.39-.73,1.24-1.55,2.41-2.46,3.52-.92,1.1-1.92,2.13-3,3.08-1.12-1.35-2.22-2.74-3.22-4.1.19-.17.36-.35.54-.52h0Zm18.56,12.2c-2.03,2.46-5.66,2.81-8.12.78,0,0,0,0,0,0-2.29-2.14-4.45-4.41-6.46-6.81,1.16-1.03,2.25-2.14,3.24-3.33.99-1.2,1.88-2.48,2.67-3.82,2.74,1.52,5.38,3.21,7.91,5.06h0c2.46,2.03,2.81,5.67.78,8.13,0,0,0,0,0,0h0Z"/>
</svg>