<?xml version="1.0" encoding="UTF-8"?>
<svg id="Layer_2" xmlns="http://www.w3.org/2000/svg" viewBox="0 0 240.84 65.02">
	<path d="m27.51,2.09c-.14,4.1-2.95,9.29-4.9,10.51-1.51-3.53-5.04-9.22-8.93-9.22-.29.22-6.19,3.89-6.19,21.39,0,16.35,8.35,19.87,9.87,19.87,1.22,0,4.68-1.37,6.19-3.1.29,0,.86.14,1.01.22.22.29.29,1.01.22,1.3-.79,1.73-7.7,6.7-11.67,6.7-5.62,0-13.1-4.68-13.1-19.15C0,13.9,6.34,0,19.23,0c5.11,0,7.92,1.51,8.28,2.09Z"/>
	<path d="m56.67,27.07c0,9.65-4.97,22.68-15.48,22.68-7.99,0-12.17-5.11-12.24-14.83.07-9.65,5.04-22.68,15.55-22.68,7.99,0,12.17,5.11,12.17,14.83Zm-21.24.14c0,13.18,6.26,19.15,10.44,19.15.5,0,4.39-3.1,4.39-11.59,0-13.18-6.26-19.15-10.44-19.15-.5,0-4.39,3.1-4.39,11.59Z"/>
	<path d="m107.64,46.52c-1.01,1.01-5.83,2.74-9.72,2.74-.22-.07-1.08-.72-1.3-.94-.58-1.15-1.15-3.02-1.15-5.4,0-8.42,5.11-14.04,5.11-14.69,0-4.97-.79-8.57-2.66-11.45-5.33,1.22-12.46,11.45-14.62,14.62,0,6.91,4.61,13.68,6.12,15.12-1.01,1.01-5.83,2.74-9.72,2.74-.22-.07-1.08-.72-1.3-.94-.58-1.15-1.15-3.02-1.15-5.4,0-8.42,5.11-14.04,5.11-14.69,0-4.97-.79-8.57-2.66-11.45-5.18,1.22-12.17,11.09-14.69,14.62,0,6.91,4.61,13.68,6.12,15.12-1.01,1.01-5.83,2.74-9.72,2.74-.22-.07-1.08-.72-1.3-.94-.58-1.15-1.15-3.02-1.15-5.4,0-8.42,5.11-14.04,5.11-14.69,0-5.83-1.51-9.79-4.18-12.89,1.8-1.37,5.33-2.81,10.3-2.81.22.07,1.08.72,1.3.94,0,0,.36.72.36,2.23s-.36,3.17-.86,4.75c4.68-5.76,8.71-7.92,8.93-7.92,5.98,0,10.01,1.8,10.23,2.02,0,0,.36.43.36,1.66,0,1.08-.22,2.23-.5,3.31,4.32-5.11,7.92-6.98,8.14-6.98,5.98,0,10.01,1.8,10.22,2.02,0,0,.36.43.36,1.66,0,6.77-7.2,14.54-7.2,15.19,0,6.91,4.61,13.68,6.12,15.12Z"/>
	<path d="m140.04,24.77c-.43,11.38-6.19,25.35-14.55,25.35-3.67,0-7.06-3.31-8.57-6.26.43,9.79,5.4,17.43,5.9,18.07-1.01,1.01-4.75,2.74-8.64,2.74-.22-.07-1.08-.72-1.3-.94-.22-.36-.86-3.02-.86-8.28,0-17.5,5.33-26.57,5.33-27.22,0-5.83-2.23-9.79-4.9-12.89,1.8-1.37,5.33-2.81,10.3-2.81.29.14.72.5.94.86,0,0,.14.79.14,1.58,0,2.66-.86,5.62-1.94,8.28,4.61-7.92,7.7-11.02,7.92-11.02,5.76,0,8.42,1.8,8.64,2.02.07.14,1.87,2.66,1.58,10.51Zm-7.42,7.06c0-12.17-2.38-14.91-2.66-14.91-1.15,0-6.77,6.12-11.81,14.33.5,8.14,6.19,15.41,10.44,15.41.5,0,4.03-2.45,4.03-14.83Z"/>
	<path d="m171.94,46.52c-1.01,1.01-5.83,2.74-9.36,2.74-.22-.07-1.08-.72-1.3-.94-.58-1.15-.86-3.02-.86-5.4,0-1.3.22-2.74.5-4.1-3.74,6.19-7.06,10.58-8.71,10.58-3.96,0-6.84-2.23-7.06-2.45-.22-.36-1.66-3.02-1.66-11.02,0-11.38,4.39-23.4,14.4-23.4,6.55,0,12.96,2.38,13.18,2.59.07.22.29.94.29,3.17,0,8.42-5.54,12.46-5.54,13.11,0,6.91,4.61,13.68,6.12,15.12Zm-7.06-19.01c-.65-8.21-8.06-11.59-11.02-11.59-1.01.5-3.74,4.82-3.74,13.18,0,11.3,4.1,14.54,4.39,14.54.43,0,7.13-7.2,10.37-16.13Z"/>
	<path d="m205.85,46.52c-1.01,1.01-5.83,2.74-9.72,2.74-.22-.07-1.08-.72-1.3-.94-.58-1.15-1.15-3.02-1.15-5.4,0-8.42,5.11-14.04,5.11-14.69,0-4.97-.79-8.57-2.66-11.45-5.18,1.22-12.17,11.09-14.69,14.62,0,6.91,4.61,13.68,6.12,15.12-1.01,1.01-5.83,2.74-9.72,2.74-.22-.07-1.08-.72-1.3-.94-.58-1.15-1.15-3.02-1.15-5.4,0-8.42,5.11-14.04,5.11-14.69,0-5.83-1.51-9.79-4.18-12.89,1.8-1.37,5.33-2.81,10.3-2.81.22.07,1.08.72,1.3.94,0,0,.36.72.36,2.23s-.36,3.17-.86,4.75c4.68-5.76,8.71-7.92,8.93-7.92,5.98,0,10.01,1.8,10.23,2.02,0,0,.36.5.36,1.66,0,6.77-7.2,14.54-7.2,15.19,0,6.91,4.61,13.68,6.12,15.12Z"/>
	<path d="m234.79,29.67c.72,2.3,1.87,6.91,1.87,13.39,0,11.52-3.02,21.96-16.42,21.96-8.86,0-11.66-4.61-12.02-5.54.5-2.66,4.25-5.83,6.05-5.83.72,1.51,6.05,7.78,13.97,7.78.65,0,2.66-1.8,2.66-8.78s-1.73-10.66-2.66-12.31c-3.31,5.33-6.62,9.07-7.78,9.07-6.48,0-9.15-1.8-9.43-1.94,0,0-.58-1.01-.58-4.03,0-7.42,4.03-14.55,4.03-15.19,0-5.83-1.51-9.79-4.18-12.89,1.8-1.37,5.69-2.81,10.66-2.81.22.07,1.08.72,1.3.94,0,0,.36.72.36,2.74,0,6.77-7.2,14.54-7.2,15.19,0,5.4,2.95,11.16,5.04,13.75,4.82-1.8,10.94-14.19,12.24-17.21-.07-5.69-1.58-9.58-4.18-12.6,1.8-1.37,5.69-2.81,10.66-2.81.22.07,1.08.72,1.3.94,0,0,.36.72.36,2.74,0,5.04-4.03,10.66-6.05,13.46Z"/>
</svg>