<?xml version="1.0" encoding="utf-8"?>
<!-- Generator: Adobe Illustrator 27.7.0, SVG Export Plug-In . SVG Version: 6.00 Build 0)  -->
<svg version="1.1" id="Layer_1" xmlns="http://www.w3.org/2000/svg" xmlns:xlink="http://www.w3.org/1999/xlink" x="0px" y="0px"
	 viewBox="0 0 1440 1440" style="enable-background:new 0 0 1440 1440;" xml:space="preserve">
<style type="text/css">
	.st0{fill:#010101;}
</style>
<g>
	<path class="st0" d="M251.4,639.6c2.9-1.3,6-1.9,9.2-1.7c26.5,12.1,48.3,1.6,71-9.5c24.8-12.5,46.9-28.6,65.4-47.6
		c14.2-13.7,32-24.2,51.8-30.6c9.7-4,21.1-2.5,29,3.7c15.5,11.8,30.9,23.8,46.3,35.8c6.7,5.2,13.2,10.5,20.1,15.5
		c27.4,19.4,52.6,9.4,71.9-7.7c9.5-8.5,18.3-17.6,28.6-25.3c17.4-13.9,44.1-13.7,61.1,0.5c17.3,13.4,34.4,27.1,50.4,41.7
		c21,20.5,56.9,22.7,81,5c21.3-13.9,41.9-28.7,63.3-42.6c8.8-5.9,18.3-10.8,28.4-14.7c13.2-4.9,17.6,8.1,26.4,12.4
		c16.4,8,31.7,17.8,47.6,26.5c22.9,12.5,45.9,24.8,69.1,37c4.5,2.4,10.1,3.2,14.5,5.6c3.3,2.4,6.3,5.1,8.9,8.2
		c-4.3,1.8-9.1,2.6-13.9,2.5c-9.7-3.2-18.9-7.2-27.7-12c-34.3-18.3-68.4-36.9-102.6-55.5c-2.9-1.3-5.5-2.9-7.8-4.9
		c-8.5-9-17.9-7.4-27.1-1.6c-11.8,7.4-23.5,15.1-34.5,23.4c-19.8,16.3-43.2,28.8-68.9,36.7c-18,5.4-38,1.9-52.3-9.1
		c-17.1-12.6-32.7-26.8-49.9-39.4c-9-7.3-19.6-12.9-31.1-16.6c-17.2-4.4-29.3,6.3-40.6,16.2c-12.2,10.7-22.1,23.5-39,30
		c-18.1,7.8-39.7,6.6-56.5-3.1c-20.1-10.5-33.7-26.6-50.4-40c-3-2.7-6.2-5.1-9.6-7.4c-22.3-13.6-36.9-13.3-58.9,2.2
		c-9.1,6.5-17.6,13.6-25.4,21.3c-23,23-52.2,38.1-82.5,52.5c-17.9,8.7-39.5,9.6-58.3,2.4c-3.6-1.2-7.1-2.8-10.6-4.2L251.4,639.6z"/>
	<path class="st0" d="M1056.8,672.9c-25.2-9.2-49.6-16.8-72.6-27c-20.1-8.9-39.1-19.1-62.1-21.5c-13-2.5-26.5,0.2-37.1,7.2
		c-23,16.2-45.8,33.7-74.6,41.1c-36.1,9.2-61.2,11.6-89.2-16.5c-6.7-6.7-16.2-11.2-23.6-17.4c-7.9-6.6-15-14-22.4-21.1
		c-5.9-5.6-10.5-5.5-17.8-0.3c-17.5,12.6-32.3,27.7-53.5,36.8c-30.7,13.1-81,11.4-107.2-12.9c-13.8-11.6-28.6-22.2-44.3-31.7
		c-8.3-5.6-19.3-3.3-28.9,4.4c-12.9,11.2-26.5,21.7-40.8,31.5c-27.9,17.5-60,29-93.9,33.7c-8.4-0.3-16.5-2.5-23.7-6.1
		c-1.4-2.2-1.7-4.8-0.7-7.1c2.2-1.2,4.7-1.7,7.3-1.4c9.5,1.2,19.1,1.3,28.7,0.5c34.7-6.4,66.9-20.4,93.6-40.9
		c6.3-5,12.2-10.4,18.1-15.8c20-18.4,36.2-19,57.9-2.5c15.2,11.6,30.4,23.3,46.3,34.1c13.4,8.4,30,12.2,46.4,10.7
		c26.6-1,51.8-11.1,70-28c8.3-7.2,16.7-14.4,25.7-21c3.1-1.9,7.2-2.3,10.7-1.1c12.3,8.8,24,18.4,35.7,27.8
		c11.2,9,21.9,18.5,33.3,27.3c9.6,7.1,21.9,10.8,34.4,10.6c24.4,0.9,48.4-6.1,67.4-19.5c16.5-11.4,33.9-21.7,51-32.3
		c11.2-7,24-3.8,35.3-1.8c19,2.6,37.1,8.5,53.4,17.4c24,13.4,50.7,22.9,78.6,28.1c3.5,1,6.2,3.4,7.2,6.5
		C1063.1,668,1060.3,670.8,1056.8,672.9z"/>
	<path class="st0" d="M262.9,701c47.6,3.9,95.3-6.3,135.5-29c6.2-4.1,11.7-8.9,16.5-14.2c4.1-3.9,7.7-8.1,11.6-12.1
		c4-4.8,11.7-5.9,17.2-2.4c0.6,0.4,1.1,0.8,1.6,1.2c10.8,6.9,21.9,13.6,32.7,20.4c16.9,10.9,36.4,18.3,57,21.8
		c26.3,4.3,52,4.5,75.1-8.5c11.5-6.8,22-14.8,31.2-23.8c6.3-6,9.8-7.2,18.4-2.5c32.1,17.6,61.6,40.6,101,44.9
		c16.2,0.7,32.4-0.1,48.5-2.2c25.9-1.9,44.7-16.2,64.4-28.8c34.2-22,68.4-12.6,100.1,2.6c32,15.3,64.2,24.4,100.7,19.6
		c4.8-0.6,10.6-2.2,10.1,3.9c-1.1,3.9-4.4,7-8.8,8.2c-17.8-0.1-35.6-1-53.2-2.7c-21.1-3.1-41.3-9.9-59.4-19.9
		c-16.8-8.3-35.9-12.3-55.1-11.7c-13.2,1.1-25.6,6.1-35.2,14.1c-30.1,20.9-67.9,31.7-106.3,30.4c-16.8-1.1-33.1-5.3-47.8-12.4
		c-19.6-8.9-38.3-19.1-56-30.6c-9.1-5.6-14.3-3.2-20.7,2.6c-19.1,18.6-46,29.6-74.5,30.6c-26.8,1.5-53.5-3.9-76.9-15.3
		c-16.6-7.2-31.8-16.5-45.3-27.6c-2.6-3.4-7.8-4.2-11.7-2c-1.2,0.7-2.2,1.7-2.8,2.9c-14.5,21.9-40.7,29.3-64.4,39.4
		c-34.7,14.8-72.2,15-109.7,13.9c-2.9,0.1-5.7-0.4-8.4-1.3c-2.8-1.4-5.4-3.1-7.7-5.1c2.9-2.3,6.2-4.1,9.8-5.4
		C254.4,699.8,258.7,700.1,262.9,701z"/>
	<path class="st0" d="M251.4,322.9c2.9-1.3,6-1.9,9.2-1.7c26.5,12.1,48.3,1.6,71-9.5c24.8-12.5,46.9-28.6,65.4-47.6
		c14.2-13.7,32-24.2,51.8-30.6c9.7-4,21.1-2.5,29,3.7c15.5,11.8,30.9,23.8,46.3,35.8c6.7,5.2,13.2,10.5,20.1,15.5
		c27.4,19.4,52.6,9.4,71.9-7.7c9.5-8.5,18.3-17.6,28.6-25.3c17.4-13.9,44.1-13.7,61.1,0.5c17.3,13.4,34.4,27.1,50.4,41.7
		c21,20.5,56.9,22.7,81,5c21.3-13.9,41.9-28.7,63.3-42.6c8.8-5.9,18.3-10.8,28.4-14.7c13.2-4.9,17.6,8.1,26.4,12.4
		c16.4,8,31.7,17.8,47.6,26.5c22.9,12.5,45.9,24.8,69.1,37c4.5,2.4,10.1,3.2,14.5,5.6c3.3,2.4,6.3,5.1,8.9,8.2
		c-4.3,1.8-9.1,2.6-13.9,2.5c-9.7-3.2-18.9-7.2-27.7-12c-34.3-18.3-68.4-36.9-102.6-55.5c-2.9-1.3-5.5-2.9-7.8-4.9
		c-8.5-9-17.9-7.4-27.1-1.6c-11.8,7.4-23.5,15.1-34.5,23.4c-19.8,16.3-43.2,28.8-68.9,36.7c-18,5.4-38,1.9-52.3-9.1
		c-17.1-12.6-32.7-26.8-49.9-39.4c-9-7.3-19.6-12.9-31.1-16.6c-17.2-4.4-29.3,6.3-40.6,16.2c-12.2,10.7-22.1,23.5-39,30
		c-18.1,7.8-39.7,6.6-56.5-3.1c-20.1-10.5-33.7-26.6-50.4-40c-3-2.7-6.2-5.1-9.6-7.4c-22.3-13.6-36.9-13.3-58.9,2.2
		c-9.1,6.5-17.6,13.6-25.4,21.3c-23,23-52.2,38.1-82.5,52.5c-17.9,8.7-39.5,9.6-58.3,2.4c-3.6-1.2-7.1-2.8-10.6-4.2L251.4,322.9z"/>
	<path class="st0" d="M1056.8,356.2c-25.2-9.2-49.6-16.8-72.6-27c-20.1-8.9-39.1-19.1-62.1-21.5c-13-2.5-26.5,0.2-37.1,7.2
		c-23,16.2-45.8,33.7-74.6,41.1c-36.1,9.2-61.2,11.6-89.2-16.5c-6.7-6.7-16.2-11.2-23.6-17.4c-7.9-6.6-15-14-22.4-21.1
		c-5.9-5.6-10.5-5.5-17.8-0.3c-17.5,12.6-32.3,27.7-53.5,36.8c-30.7,13.1-81,11.4-107.2-12.9c-13.8-11.6-28.6-22.2-44.3-31.7
		c-8.3-5.6-19.3-3.3-28.9,4.4c-12.9,11.2-26.5,21.7-40.8,31.5c-27.9,17.5-60,29-93.9,33.7c-8.4-0.3-16.5-2.5-23.7-6.1
		c-1.4-2.2-1.7-4.8-0.7-7.1c2.2-1.2,4.7-1.7,7.3-1.4c9.5,1.2,19.1,1.3,28.7,0.5c34.7-6.4,66.9-20.4,93.6-40.9
		c6.3-5,12.2-10.4,18.1-15.8c20-18.4,36.2-19,57.9-2.5c15.2,11.6,30.4,23.3,46.3,34.1c13.4,8.4,30,12.2,46.4,10.7
		c26.6-1,51.8-11.1,70-28c8.3-7.2,16.7-14.4,25.7-21c3.1-1.9,7.2-2.3,10.7-1.1c12.3,8.8,24,18.4,35.7,27.8
		c11.2,9,21.9,18.5,33.3,27.3c9.6,7.1,21.9,10.8,34.4,10.6c24.4,0.9,48.4-6.1,67.4-19.5c16.5-11.4,33.9-21.7,51-32.3
		c11.2-7,24-3.8,35.3-1.8c19,2.6,37.1,8.5,53.4,17.4c24,13.4,50.7,22.9,78.6,28.1c3.5,1,6.2,3.4,7.2,6.5
		C1063.1,351.3,1060.3,354.1,1056.8,356.2z"/>
	<path class="st0" d="M262.9,384.2c47.6,3.9,95.3-6.3,135.5-29c6.2-4.1,11.7-8.9,16.5-14.2c4.1-3.9,7.7-8.1,11.6-12.1
		c4-4.8,11.7-5.9,17.2-2.4c0.6,0.4,1.1,0.8,1.6,1.2c10.8,6.9,21.9,13.6,32.7,20.4c16.9,10.9,36.4,18.3,57,21.8
		c26.3,4.3,52,4.5,75.1-8.5c11.5-6.8,22-14.8,31.2-23.8c6.3-6,9.8-7.2,18.4-2.5c32.1,17.6,61.6,40.6,101,44.9
		c16.2,0.7,32.4-0.1,48.5-2.2c25.9-1.9,44.7-16.2,64.4-28.8c34.2-22,68.4-12.6,100.1,2.6c32,15.3,64.2,24.4,100.7,19.6
		c4.8-0.6,10.6-2.2,10.1,3.9c-1.1,3.9-4.4,7-8.8,8.2c-17.8-0.1-35.6-1-53.2-2.7c-21.1-3.1-41.3-9.9-59.4-19.9
		c-16.8-8.3-35.9-12.3-55.1-11.7c-13.2,1.1-25.6,6.1-35.2,14.1c-30.1,20.9-67.9,31.7-106.3,30.4c-16.8-1.1-33.1-5.3-47.8-12.4
		c-19.6-8.9-38.3-19.1-56-30.6c-9.1-5.6-14.3-3.2-20.7,2.6c-19.1,18.6-46,29.6-74.5,30.6c-26.8,1.5-53.5-3.9-76.9-15.3
		c-16.6-7.2-31.8-16.5-45.3-27.6c-2.6-3.4-7.8-4.2-11.7-2c-1.2,0.7-2.2,1.7-2.8,2.9c-14.5,21.9-40.7,29.3-64.4,39.4
		c-34.7,14.8-72.2,15-109.7,13.9c-2.9,0.1-5.7-0.4-8.4-1.3c-2.8-1.4-5.4-3.1-7.7-5.1c2.9-2.3,6.2-4.1,9.8-5.4
		C254.4,383,258.7,383.3,262.9,384.2z"/>
	<g>
		<path class="st0" d="M242.4,1163.4c2.9-1.3,6-1.9,9.2-1.7c26.5,12.1,48.3,1.6,71-9.5c24.8-12.5,46.9-28.6,65.4-47.6
			c14.2-13.7,32-24.2,51.8-30.6c9.7-4,21.1-2.5,29,3.7c15.5,11.8,30.9,23.8,46.3,35.8c6.7,5.2,13.2,10.5,20.1,15.5
			c27.4,19.4,52.6,9.4,71.9-7.7c9.5-8.5,18.3-17.6,28.6-25.3c17.4-13.9,44.1-13.7,61.1,0.5c17.3,13.4,34.4,27.1,50.4,41.7
			c21,20.5,56.9,22.7,81,5c21.3-13.9,41.9-28.7,63.3-42.6c8.8-5.9,18.3-10.8,28.4-14.7c13.2-4.9,17.6,8.1,26.4,12.4
			c16.4,8,31.7,17.8,47.6,26.5c22.9,12.5,45.9,24.8,69.1,37c4.5,2.4,10.1,3.2,14.5,5.6c3.3,2.4,6.3,5.1,8.9,8.2
			c-4.3,1.8-9.1,2.6-13.9,2.5c-9.7-3.2-18.9-7.2-27.7-12c-34.3-18.3-68.4-36.9-102.6-55.5c-2.9-1.3-5.5-2.9-7.8-4.9
			c-8.5-9-17.9-7.4-27.1-1.6c-11.8,7.4-23.5,15.1-34.5,23.4c-19.8,16.3-43.2,28.8-68.9,36.7c-18,5.4-38,1.9-52.3-9.1
			c-17.1-12.6-32.7-26.8-49.9-39.4c-9-7.3-19.6-12.9-31.1-16.6c-17.2-4.4-29.3,6.3-40.6,16.2c-12.2,10.7-22.1,23.5-39,30
			c-18.1,7.8-39.7,6.6-56.5-3.1c-20.1-10.5-33.7-26.6-50.4-40c-3-2.7-6.2-5.1-9.6-7.4c-22.3-13.6-36.9-13.3-58.9,2.2
			c-9.1,6.5-17.6,13.6-25.4,21.3c-23,23-52.2,38.1-82.5,52.5c-17.9,8.7-39.5,9.6-58.3,2.4c-3.6-1.2-7.1-2.8-10.6-4.2L242.4,1163.4z"
			/>
		<path class="st0" d="M1047.8,1196.7c-25.2-9.2-49.6-16.8-72.6-27c-20.1-8.9-39.1-19.1-62.1-21.5c-13-2.5-26.5,0.2-37.1,7.2
			c-23,16.2-45.8,33.7-74.6,41.1c-36.1,9.2-61.2,11.6-89.2-16.5c-6.7-6.7-16.2-11.2-23.6-17.4c-7.9-6.6-15-14-22.4-21.1
			c-5.9-5.6-10.5-5.5-17.8-0.3c-17.5,12.6-32.3,27.7-53.5,36.8c-30.7,13.1-81,11.4-107.2-12.9c-13.8-11.6-28.6-22.2-44.3-31.7
			c-8.3-5.6-19.3-3.3-28.9,4.4c-12.9,11.2-26.5,21.7-40.8,31.5c-27.9,17.5-60,29-93.9,33.7c-8.4-0.3-16.5-2.5-23.7-6.1
			c-1.4-2.2-1.7-4.8-0.7-7.1c2.2-1.2,4.7-1.7,7.3-1.4c9.5,1.2,19.1,1.3,28.7,0.5c34.7-6.4,66.9-20.4,93.6-40.9
			c6.3-5,12.2-10.4,18.1-15.8c20-18.4,36.2-19,57.9-2.5c15.2,11.6,30.4,23.3,46.3,34.1c13.4,8.4,30,12.2,46.4,10.7
			c26.6-1,51.8-11.1,70-28c8.3-7.2,16.7-14.4,25.7-21c3.1-1.9,7.2-2.3,10.7-1.1c12.3,8.8,24,18.4,35.7,27.8
			c11.2,9,21.9,18.5,33.3,27.3c9.6,7.1,21.9,10.8,34.4,10.6c24.4,0.9,48.4-6.1,67.4-19.5c16.5-11.4,33.9-21.7,51-32.3
			c11.2-7,24-3.8,35.3-1.8c19,2.6,37.1,8.5,53.4,17.4c24,13.4,50.7,22.9,78.6,28.1c3.5,1,6.2,3.4,7.2,6.5
			C1054.2,1191.7,1051.3,1194.5,1047.8,1196.7z"/>
		<path class="st0" d="M253.9,1224.7c47.6,3.9,95.3-6.3,135.5-29c6.2-4.1,11.7-8.9,16.5-14.2c4.1-3.9,7.7-8.1,11.6-12.1
			c4-4.8,11.7-5.9,17.2-2.4c0.6,0.4,1.1,0.8,1.6,1.2c10.8,6.9,21.9,13.6,32.7,20.4c16.9,10.9,36.4,18.3,57,21.8
			c26.3,4.3,52,4.5,75.1-8.5c11.5-6.8,22-14.8,31.2-23.8c6.3-6,9.8-7.2,18.4-2.5c32.1,17.6,61.6,40.6,101,44.9
			c16.2,0.7,32.4-0.1,48.5-2.2c25.9-1.9,44.7-16.2,64.4-28.8c34.2-22,68.4-12.6,100.1,2.6c32,15.3,64.2,24.4,100.7,19.6
			c4.8-0.6,10.6-2.2,10.1,3.9c-1.1,3.9-4.4,7-8.8,8.2c-17.8-0.1-35.6-1-53.2-2.7c-21.1-3.1-41.3-9.9-59.4-19.9
			c-16.8-8.3-35.9-12.3-55.1-11.7c-13.2,1.1-25.6,6.1-35.2,14.1c-30.1,20.9-67.9,31.7-106.3,30.4c-16.8-1.1-33.1-5.3-47.8-12.4
			c-19.6-8.9-38.3-19.1-56-30.6c-9.1-5.6-14.3-3.2-20.7,2.6c-19.1,18.6-46,29.6-74.5,30.6c-26.8,1.5-53.5-3.9-76.9-15.3
			c-16.6-7.2-31.8-16.5-45.3-27.6c-2.6-3.4-7.8-4.2-11.7-2c-1.2,0.7-2.2,1.7-2.8,2.9c-14.5,21.9-40.7,29.3-64.4,39.4
			c-34.7,14.8-72.2,15-109.7,13.9c-2.9,0.1-5.7-0.4-8.4-1.3c-2.8-1.4-5.4-3.1-7.7-5.1c2.9-2.3,6.2-4.1,9.8-5.4
			C245.5,1223.5,249.8,1223.8,253.9,1224.7z"/>
	</g>
	<path class="st0" d="M245.9,926.7c2.9-1.3,6-1.9,9.2-1.7c26.5,12.1,48.3,1.6,71-9.5c24.8-12.5,46.9-28.6,65.4-47.6
		c14.2-13.7,32-24.2,51.8-30.6c9.7-4,21.1-2.5,29,3.7c15.5,11.8,30.9,23.8,46.3,35.8c6.7,5.2,13.2,10.5,20.1,15.5
		c27.4,19.4,52.6,9.4,71.9-7.7c9.5-8.5,18.3-17.6,28.6-25.3c17.4-13.9,44.1-13.7,61.1,0.5c17.3,13.4,34.4,27.1,50.4,41.7
		c21,20.5,56.9,22.7,81,5c21.3-13.9,41.9-28.7,63.3-42.6c8.8-5.9,18.3-10.8,28.4-14.7c13.2-4.9,17.6,8.1,26.4,12.4
		c16.4,8,31.7,17.8,47.6,26.5c22.9,12.5,45.9,24.8,69.1,37c4.5,2.4,10.1,3.2,14.5,5.6c3.3,2.4,6.3,5.1,8.9,8.2
		c-4.3,1.8-9.1,2.6-13.9,2.5c-9.7-3.2-18.9-7.2-27.7-12c-34.3-18.3-68.4-36.9-102.6-55.5c-2.9-1.3-5.5-2.9-7.8-4.9
		c-8.5-9-17.9-7.4-27.1-1.6c-11.8,7.4-23.5,15.1-34.5,23.4c-19.8,16.3-43.2,28.8-68.9,36.7c-18,5.4-38,1.9-52.3-9.1
		c-17.1-12.6-32.7-26.8-49.9-39.4c-9-7.3-19.6-12.9-31.1-16.6c-17.2-4.4-29.3,6.3-40.6,16.2c-12.2,10.7-22.1,23.5-39,30
		c-18.1,7.8-39.7,6.6-56.5-3.1c-20.1-10.5-33.7-26.6-50.4-40c-3-2.7-6.2-5.1-9.6-7.4c-22.3-13.6-36.9-13.3-58.9,2.2
		c-9.1,6.5-17.6,13.6-25.4,21.3c-23,23-52.2,38.1-82.5,52.5c-17.9,8.7-39.5,9.6-58.3,2.4c-3.6-1.2-7.1-2.8-10.6-4.2L245.9,926.7z"/>
	<path class="st0" d="M1051.3,960c-25.2-9.2-49.6-16.8-72.6-27c-20.1-8.9-39.1-19.1-62.1-21.5c-13-2.5-26.5,0.2-37.1,7.2
		c-23,16.2-45.8,33.7-74.6,41.1c-36.1,9.2-61.2,11.6-89.2-16.5c-6.7-6.7-16.2-11.2-23.6-17.4c-7.9-6.6-15-14-22.4-21.1
		c-5.9-5.6-10.5-5.5-17.8-0.3c-17.5,12.6-32.3,27.7-53.5,36.8c-30.7,13.1-81,11.4-107.2-12.9c-13.8-11.6-28.6-22.2-44.3-31.7
		c-8.3-5.6-19.3-3.3-28.9,4.4c-12.9,11.2-26.5,21.7-40.8,31.5c-27.9,17.5-60,29-93.9,33.7c-8.4-0.3-16.5-2.5-23.7-6.1
		c-1.4-2.2-1.7-4.8-0.7-7.1c2.2-1.2,4.7-1.7,7.3-1.4c9.5,1.2,19.1,1.3,28.7,0.5c34.7-6.4,66.9-20.4,93.6-40.9
		c6.3-5,12.2-10.4,18.1-15.8c20-18.4,36.2-19,57.9-2.5c15.2,11.6,30.4,23.3,46.3,34.1c13.4,8.4,30,12.2,46.4,10.7
		c26.6-1,51.8-11.1,70-28c8.3-7.2,16.7-14.4,25.7-21c3.1-1.9,7.2-2.3,10.7-1.1c12.3,8.8,24,18.4,35.7,27.8
		c11.2,9,21.9,18.5,33.3,27.3c9.6,7.1,21.9,10.8,34.4,10.6c24.4,0.9,48.4-6.1,67.4-19.5c16.5-11.4,33.9-21.7,51-32.3
		c11.2-7,24-3.8,35.3-1.8c19,2.6,37.1,8.5,53.4,17.4c24,13.4,50.7,22.9,78.6,28.1c3.5,1,6.2,3.4,7.2,6.5
		C1057.7,955.1,1054.8,957.9,1051.3,960z"/>
	<path class="st0" d="M257.4,988c47.6,3.9,95.3-6.3,135.5-29c6.2-4.1,11.7-8.9,16.5-14.2c4.1-3.9,7.7-8.1,11.6-12.1
		c4-4.8,11.7-5.9,17.2-2.4c0.6,0.4,1.1,0.8,1.6,1.2c10.8,6.9,21.9,13.6,32.7,20.4c16.9,10.9,36.4,18.3,57,21.8
		c26.3,4.3,52,4.5,75.1-8.5c11.5-6.8,22-14.8,31.2-23.8c6.3-6,9.8-7.2,18.4-2.5c32.1,17.6,61.6,40.6,101,44.9
		c16.2,0.7,32.4-0.1,48.5-2.2c25.9-1.9,44.7-16.2,64.4-28.8c34.2-22,68.4-12.6,100.1,2.6c32,15.3,64.2,24.4,100.7,19.6
		c4.8-0.6,10.6-2.2,10.1,3.9c-1.1,3.9-4.4,7-8.8,8.2c-17.8-0.1-35.6-1-53.2-2.7c-21.1-3.1-41.3-9.9-59.4-19.9
		c-16.8-8.3-35.9-12.3-55.1-11.7c-13.2,1.1-25.6,6.1-35.2,14.1c-30.1,20.9-67.9,31.7-106.3,30.4c-16.8-1.1-33.1-5.3-47.8-12.4
		c-19.6-8.9-38.3-19.1-56-30.6c-9.1-5.6-14.3-3.2-20.7,2.6c-19.1,18.6-46,29.6-74.5,30.6c-26.8,1.5-53.5-3.9-76.9-15.3
		c-16.6-7.2-31.8-16.5-45.3-27.6c-2.6-3.4-7.8-4.2-11.7-2c-1.2,0.7-2.2,1.7-2.8,2.9c-14.5,21.9-40.7,29.3-64.4,39.4
		c-34.7,14.8-72.2,15-109.7,13.9c-2.9,0.1-5.7-0.4-8.4-1.3c-2.8-1.4-5.4-3.1-7.7-5.1c2.9-2.3,6.2-4.1,9.8-5.4
		C249,986.8,253.3,987.2,257.4,988z"/>
	<path class="st0" d="M242.2,594.3c2.9-1.3,6-1.9,9.2-1.7c26.5,12.1,48.3,1.6,71-9.5c24.8-12.5,46.9-28.6,65.4-47.6
		c14.2-13.7,32-24.2,51.8-30.6c9.7-4,21.1-2.5,29,3.7c15.5,11.8,30.9,23.8,46.3,35.8c6.7,5.2,13.2,10.5,20.1,15.5
		c27.4,19.4,52.6,9.4,71.9-7.7c9.5-8.5,18.3-17.6,28.6-25.3c17.4-13.9,44.1-13.7,61.1,0.5c17.3,13.4,34.4,27.1,50.4,41.7
		c21,20.5,56.9,22.7,81,5c21.3-13.9,41.9-28.7,63.3-42.6c8.8-5.9,18.3-10.8,28.4-14.7c13.2-4.9,17.6,8.1,26.4,12.4
		c16.4,8,31.7,17.8,47.6,26.5c22.9,12.5,45.9,24.8,69.1,37c4.5,2.4,10.1,3.2,14.5,5.6c3.3,2.4,6.3,5.1,8.9,8.2
		c-4.3,1.8-9.1,2.6-13.9,2.5c-9.7-3.2-18.9-7.2-27.7-12c-34.3-18.3-68.4-36.9-102.6-55.5c-2.9-1.3-5.5-2.9-7.8-4.9
		c-8.5-9-17.9-7.4-27.1-1.6c-11.8,7.4-23.5,15.1-34.5,23.4c-19.8,16.3-43.2,28.8-68.9,36.7c-18,5.4-38,1.9-52.3-9.1
		c-17.1-12.6-32.7-26.8-49.9-39.4c-9-7.3-19.6-12.9-31.1-16.6c-17.2-4.4-29.3,6.3-40.6,16.2c-12.2,10.7-22.1,23.5-39,30
		c-18.1,7.8-39.7,6.6-56.5-3.1c-20.1-10.5-33.7-26.6-50.4-40c-3-2.7-6.2-5.1-9.6-7.4c-22.3-13.6-36.9-13.3-58.9,2.2
		c-9.1,6.5-17.6,13.6-25.4,21.3c-23,23-52.2,38.1-82.5,52.5c-17.9,8.7-39.5,9.6-58.3,2.4c-3.6-1.2-7.1-2.8-10.6-4.2L242.2,594.3z"/>
	<path class="st0" d="M244.1,879.8c2.9-1.3,6-1.9,9.2-1.7c26.5,12.1,48.3,1.6,71-9.5c24.8-12.5,46.9-28.6,65.4-47.6
		c14.2-13.7,32-24.2,51.8-30.6c9.7-4,21.1-2.5,29,3.7c15.5,11.8,30.9,23.8,46.3,35.8c6.7,5.2,13.2,10.5,20.1,15.5
		c27.4,19.4,52.6,9.4,71.9-7.7c9.5-8.5,18.3-17.6,28.6-25.3c17.4-13.9,44.1-13.7,61.1,0.5c17.3,13.4,34.4,27.1,50.4,41.7
		c21,20.5,56.9,22.7,81,5c21.3-13.9,41.9-28.7,63.3-42.6c8.8-5.9,18.3-10.8,28.4-14.7c13.2-4.9,17.6,8.1,26.4,12.4
		c16.4,8,31.7,17.8,47.6,26.5c22.9,12.5,45.9,24.8,69.1,37c4.5,2.4,10.1,3.2,14.5,5.6c3.3,2.4,6.3,5.1,8.9,8.2
		c-4.3,1.8-9.1,2.6-13.9,2.5c-9.7-3.2-18.9-7.2-27.7-12c-34.3-18.3-68.4-36.9-102.6-55.5c-2.9-1.3-5.5-2.9-7.8-4.9
		c-8.5-9-17.9-7.4-27.1-1.6c-11.8,7.4-23.5,15.1-34.5,23.4c-19.8,16.3-43.2,28.8-68.9,36.7c-18,5.4-38,1.9-52.3-9.1
		c-17.1-12.6-32.7-26.8-49.9-39.4c-9-7.3-19.6-12.9-31.1-16.6c-17.2-4.4-29.3,6.3-40.6,16.2c-12.2,10.7-22.1,23.5-39,30
		c-18.1,7.8-39.7,6.6-56.5-3.1c-20.1-10.5-33.7-26.6-50.4-40c-3-2.7-6.2-5.1-9.6-7.4c-22.3-13.6-36.9-13.3-58.9,2.2
		c-9.1,6.5-17.6,13.6-25.4,21.3c-23,23-52.2,38.1-82.5,52.5c-17.9,8.7-39.5,9.6-58.3,2.4c-3.6-1.2-7.1-2.8-10.6-4.2L244.1,879.8z"/>
	<path class="st0" d="M245.9,549.2c2.9-1.3,6-1.9,9.2-1.7c26.5,12.1,48.3,1.6,71-9.5c24.8-12.5,46.9-28.6,65.4-47.6
		c14.2-13.7,32-24.2,51.8-30.6c9.7-4,21.1-2.5,29,3.7c15.5,11.8,30.9,23.8,46.3,35.8c6.7,5.2,13.2,10.5,20.1,15.5
		c27.4,19.4,52.6,9.4,71.9-7.7c9.5-8.5,18.3-17.6,28.6-25.3c17.4-13.9,44.1-13.7,61.1,0.5c17.3,13.4,34.4,27.1,50.4,41.7
		c21,20.5,56.9,22.7,81,5c21.3-13.9,41.9-28.7,63.3-42.6c8.8-5.9,18.3-10.8,28.4-14.7c13.2-4.9,17.6,8.1,26.4,12.4
		c16.4,8,31.7,17.8,47.6,26.5c22.9,12.5,45.9,24.8,69.1,37c4.5,2.4,10.1,3.2,14.5,5.6c3.3,2.4,6.3,5.1,8.9,8.2
		c-4.3,1.8-9.1,2.6-13.9,2.5c-9.7-3.2-18.9-7.2-27.7-12c-34.3-18.3-68.4-36.9-102.6-55.5c-2.9-1.3-5.5-2.9-7.8-4.9
		c-8.5-9-17.9-7.4-27.1-1.6c-11.8,7.4-23.5,15.1-34.5,23.4c-19.8,16.3-43.2,28.8-68.9,36.7c-18,5.4-38,1.9-52.3-9.1
		c-17.1-12.6-32.7-26.8-49.9-39.4c-9-7.3-19.6-12.9-31.1-16.6c-17.2-4.4-29.3,6.3-40.6,16.2c-12.2,10.7-22.1,23.5-39,30
		c-18.1,7.8-39.7,6.6-56.5-3.1c-20.1-10.5-33.7-26.6-50.4-40c-3-2.7-6.2-5.1-9.6-7.4c-22.3-13.6-36.9-13.3-58.9,2.2
		c-9.1,6.5-17.6,13.6-25.4,21.3c-23,23-52.2,38.1-82.5,52.5c-17.9,8.7-39.5,9.6-58.3,2.4c-3.6-1.2-7.1-2.8-10.6-4.2L245.9,549.2z"/>
	<path class="st0" d="M1056.8,817.1c-25.2-9.2-49.6-16.8-72.6-27c-20.1-8.9-39.1-19.1-62.1-21.5c-13-2.5-26.5,0.2-37.1,7.2
		c-23,16.2-45.8,33.7-74.6,41.1c-36.1,9.2-61.2,11.6-89.2-16.5c-6.7-6.7-16.2-11.2-23.6-17.4c-7.9-6.6-15-14-22.4-21.1
		c-5.9-5.6-10.5-5.5-17.8-0.3c-17.5,12.6-32.3,27.7-53.5,36.8c-30.7,13.1-81,11.4-107.2-12.9c-13.8-11.6-28.6-22.2-44.3-31.7
		c-8.3-5.6-19.3-3.3-28.9,4.4c-12.9,11.2-26.5,21.7-40.8,31.5c-27.9,17.5-60,29-93.9,33.7c-8.4-0.3-16.5-2.5-23.7-6.1
		c-1.4-2.2-1.7-4.8-0.7-7.1c2.2-1.2,4.7-1.7,7.3-1.4c9.5,1.2,19.1,1.3,28.7,0.5c34.7-6.4,66.9-20.4,93.6-40.9
		c6.3-5,12.2-10.4,18.1-15.8c20-18.4,36.2-19,57.9-2.5c15.2,11.6,30.4,23.3,46.3,34.1c13.4,8.4,30,12.2,46.4,10.7
		c26.6-1,51.8-11.1,70-28c8.3-7.2,16.7-14.4,25.7-21c3.1-1.9,7.2-2.3,10.7-1.1c12.3,8.8,24,18.4,35.7,27.8
		c11.2,9,21.9,18.5,33.3,27.3c9.6,7.1,21.9,10.8,34.4,10.6c24.4,0.9,48.4-6.1,67.4-19.5c16.5-11.4,33.9-21.7,51-32.3
		c11.2-7,24-3.8,35.3-1.8c19,2.6,37.1,8.5,53.4,17.4c24,13.4,50.7,22.9,78.6,28.1c3.5,1,6.2,3.4,7.2,6.5
		C1063.1,812.2,1060.3,815,1056.8,817.1z"/>
	<path class="st0" d="M1064,493.8c-25.2-9.2-49.6-16.8-72.6-27c-20.1-8.9-39.1-19.1-62.1-21.5c-13-2.5-26.5,0.2-37.1,7.2
		c-23,16.2-45.8,33.7-74.6,41.1c-36.1,9.2-61.2,11.6-89.2-16.5c-6.7-6.7-16.2-11.2-23.6-17.4c-7.9-6.6-15-14-22.4-21.1
		c-5.9-5.6-10.5-5.5-17.8-0.3c-17.5,12.6-32.3,27.7-53.5,36.8c-30.7,13.1-81,11.4-107.2-12.9c-13.8-11.6-28.6-22.2-44.3-31.7
		c-8.3-5.6-19.3-3.3-28.9,4.4c-12.9,11.2-26.5,21.7-40.8,31.5c-27.9,17.5-60,29-93.9,33.7c-8.4-0.3-16.5-2.5-23.7-6.1
		c-1.4-2.2-1.7-4.8-0.7-7.1c2.2-1.2,4.7-1.7,7.3-1.4c9.5,1.2,19.1,1.3,28.7,0.5c34.7-6.4,66.9-20.4,93.6-40.9
		c6.3-5,12.2-10.4,18.1-15.8c20-18.4,36.2-19,57.9-2.5c15.2,11.6,30.4,23.3,46.3,34.1c13.4,8.4,30,12.2,46.4,10.7
		c26.6-1,51.8-11.1,70-28c8.3-7.2,16.7-14.4,25.7-21c3.1-1.9,7.2-2.3,10.7-1.1c12.3,8.8,24,18.4,35.7,27.8
		c11.2,9,21.9,18.5,33.3,27.3c9.6,7.1,21.9,10.8,34.4,10.6c24.4,0.9,48.4-6.1,67.4-19.5c16.5-11.4,33.9-21.7,51-32.3
		c11.2-7,24-3.8,35.3-1.8c19,2.6,37.1,8.5,53.4,17.4c24,13.4,50.7,22.9,78.6,28.1c3.5,1,6.2,3.4,7.2,6.5
		C1070.4,488.9,1067.5,491.7,1064,493.8z"/>
	<path class="st0" d="M1056.8,1104c-25.2-9.2-49.6-16.8-72.6-27c-20.1-8.9-39.1-19.1-62.1-21.5c-13-2.5-26.5,0.2-37.1,7.2
		c-23,16.2-45.8,33.7-74.6,41.1c-36.1,9.2-61.2,11.6-89.2-16.5c-6.7-6.7-16.2-11.2-23.6-17.4c-7.9-6.6-15-14-22.4-21.1
		c-5.9-5.6-10.5-5.5-17.8-0.3c-17.5,12.6-32.3,27.7-53.5,36.8c-30.7,13.1-81,11.4-107.2-12.9c-13.8-11.6-28.6-22.2-44.3-31.7
		c-8.3-5.6-19.3-3.3-28.9,4.4c-12.9,11.2-26.5,21.7-40.8,31.5c-27.9,17.5-60,29-93.9,33.7c-8.4-0.3-16.5-2.5-23.7-6.1
		c-1.4-2.2-1.7-4.8-0.7-7.1c2.2-1.2,4.7-1.7,7.3-1.4c9.5,1.2,19.1,1.3,28.7,0.5c34.7-6.4,66.9-20.4,93.6-40.9
		c6.3-5,12.2-10.4,18.1-15.8c20-18.4,36.2-19,57.9-2.5c15.2,11.6,30.4,23.3,46.3,34.1c13.4,8.4,30,12.2,46.4,10.7
		c26.6-1,51.8-11.1,70-28c8.3-7.2,16.7-14.4,25.7-21c3.1-1.9,7.2-2.3,10.7-1.1c12.3,8.8,24,18.4,35.7,27.8
		c11.2,9,21.9,18.5,33.3,27.3c9.6,7.1,21.9,10.8,34.4,10.6c24.4,0.9,48.4-6.1,67.4-19.5c16.5-11.4,33.9-21.7,51-32.3
		c11.2-7,24-3.8,35.3-1.8c19,2.6,37.1,8.5,53.4,17.4c24,13.4,50.7,22.9,78.6,28.1c3.5,1,6.2,3.4,7.2,6.5
		C1063.1,1099.1,1060.3,1101.9,1056.8,1104z"/>
	<path class="st0" d="M264.8,751.3c47.6,3.9,95.3-6.3,135.5-29c6.2-4.1,11.7-8.9,16.5-14.2c4.1-3.9,7.7-8.1,11.6-12.1
		c4-4.8,11.7-5.9,17.2-2.4c0.6,0.4,1.1,0.8,1.6,1.2c10.8,6.9,21.9,13.6,32.7,20.4c16.9,10.9,36.4,18.3,57,21.8
		c26.3,4.3,52,4.5,75.1-8.5c11.5-6.8,22-14.8,31.2-23.8c6.3-6,9.8-7.2,18.4-2.5c32.1,17.6,61.6,40.6,101,44.9
		c16.2,0.7,32.4-0.1,48.5-2.2c25.9-1.9,44.7-16.2,64.4-28.8c34.2-22,68.4-12.6,100.1,2.6c32,15.3,64.2,24.4,100.7,19.6
		c4.8-0.6,10.6-2.2,10.1,3.9c-1.1,3.9-4.4,7-8.8,8.2c-17.8-0.1-35.6-1-53.2-2.7c-21.1-3.1-41.3-9.9-59.4-19.9
		c-16.8-8.3-35.9-12.3-55.1-11.7c-13.2,1.1-25.6,6.1-35.2,14.1c-30.1,20.9-67.9,31.7-106.3,30.4c-16.8-1.1-33.1-5.3-47.8-12.4
		c-19.6-8.9-38.3-19.1-56-30.6c-9.1-5.6-14.3-3.2-20.7,2.6c-19.1,18.6-46,29.6-74.5,30.6c-26.8,1.5-53.5-3.9-76.9-15.3
		c-16.6-7.2-31.8-16.5-45.3-27.6c-2.6-3.4-7.8-4.2-11.7-2c-1.2,0.7-2.2,1.7-2.8,2.9c-14.5,21.9-40.7,29.3-64.4,39.4
		c-34.7,14.8-72.2,15-109.7,13.9c-2.9,0.1-5.7-0.4-8.4-1.3c-2.8-1.4-5.4-3.1-7.7-5.1c2.9-2.3,6.2-4.1,9.8-5.4
		C256.4,750.2,260.7,750.5,264.8,751.3z"/>
	<path class="st0" d="M272.1,429.1c47.6,3.9,95.3-6.3,135.5-29c6.2-4.1,11.7-8.9,16.5-14.2c4.1-3.9,7.7-8.1,11.6-12.1
		c4-4.8,11.7-5.9,17.2-2.4c0.6,0.4,1.1,0.8,1.6,1.2c10.8,6.9,21.9,13.6,32.7,20.4c16.9,10.9,36.4,18.3,57,21.8
		c26.3,4.3,52,4.5,75.1-8.5c11.5-6.8,22-14.8,31.2-23.8c6.3-6,9.8-7.2,18.4-2.5c32.1,17.6,61.6,40.6,101,44.9
		c16.2,0.7,32.4-0.1,48.5-2.2c25.9-1.9,44.7-16.2,64.4-28.8c34.2-22,68.4-12.6,100.1,2.6c32,15.3,64.2,24.4,100.7,19.6
		c4.8-0.6,10.6-2.2,10.1,3.9c-1.1,3.9-4.4,7-8.8,8.2c-17.8-0.1-35.6-1-53.2-2.7c-21.1-3.1-41.3-9.9-59.4-19.9
		c-16.8-8.3-35.9-12.3-55.1-11.7c-13.2,1.1-25.6,6.1-35.2,14.1c-30.1,20.9-67.9,31.7-106.3,30.4c-16.8-1.1-33.1-5.3-47.8-12.4
		c-19.6-8.9-38.3-19.1-56-30.6c-9.1-5.6-14.3-3.2-20.7,2.6c-19.1,18.6-46,29.6-74.5,30.6c-26.8,1.5-53.5-3.9-76.9-15.3
		c-16.6-7.2-31.8-16.5-45.3-27.6c-2.6-3.4-7.8-4.2-11.7-2c-1.2,0.7-2.2,1.7-2.8,2.9c-14.5,21.9-40.7,29.3-64.4,39.4
		c-34.7,14.8-72.2,15-109.7,13.9c-2.9,0.1-5.7-0.4-8.4-1.3c-2.8-1.4-5.4-3.1-7.7-5.1c2.9-2.3,6.2-4.1,9.8-5.4
		C263.6,427.9,267.9,428.2,272.1,429.1z"/>
	<path class="st0" d="M1064,271c-25.2-9.2-49.6-16.8-72.6-27c-20.1-8.9-39.1-19.1-62.1-21.5c-13-2.5-26.5,0.2-37.1,7.2
		c-23,16.2-45.8,33.7-74.6,41.1c-36.1,9.2-61.2,11.6-89.2-16.5c-6.7-6.7-16.2-11.2-23.6-17.4c-7.9-6.6-15-14-22.4-21.1
		c-5.9-5.6-10.5-5.5-17.8-0.3c-17.5,12.6-32.3,27.7-53.5,36.8c-30.7,13.1-81,11.4-107.2-12.9c-13.8-11.6-28.6-22.2-44.3-31.7
		c-8.3-5.6-19.3-3.3-28.9,4.4c-12.9,11.2-26.5,21.7-40.8,31.5c-27.9,17.5-60,29-93.9,33.7c-8.4-0.3-16.5-2.5-23.7-6.1
		c-1.4-2.2-1.7-4.8-0.7-7.1c2.2-1.2,4.7-1.7,7.3-1.4c9.5,1.2,19.1,1.3,28.7,0.5c34.7-6.4,66.9-20.4,93.6-40.9
		c6.3-5,12.2-10.4,18.1-15.8c20-18.4,36.2-19,57.9-2.5c15.2,11.6,30.4,23.3,46.3,34.1c13.4,8.4,30,12.2,46.4,10.7
		c26.6-1,51.8-11.1,70-28c8.3-7.2,16.7-14.4,25.7-21c3.1-1.9,7.2-2.3,10.7-1.1c12.3,8.8,24,18.4,35.7,27.8
		c11.2,9,21.9,18.5,33.3,27.3c9.6,7.1,21.9,10.8,34.4,10.6c24.4,0.9,48.4-6.1,67.4-19.5c16.5-11.4,33.9-21.7,51-32.3
		c11.2-7,24-3.8,35.3-1.8c19,2.6,37.1,8.5,53.4,17.4c24,13.4,50.7,22.9,78.6,28.1c3.5,1,6.2,3.4,7.2,6.5
		C1070.4,266.1,1067.5,268.9,1064,271z"/>
	<path class="st0" d="M272.1,206.2c47.6,3.9,95.3-6.3,135.5-29c6.2-4.1,11.7-8.9,16.5-14.2c4.1-3.9,7.7-8.1,11.6-12.1
		c4-4.8,11.7-5.9,17.2-2.4c0.6,0.4,1.1,0.8,1.6,1.2c10.8,6.9,21.9,13.6,32.7,20.4c16.9,10.9,36.4,18.3,57,21.8
		c26.3,4.3,52,4.5,75.1-8.5c11.5-6.8,22-14.8,31.2-23.8c6.3-6,9.8-7.2,18.4-2.5c32.1,17.6,61.6,40.6,101,44.9
		c16.2,0.7,32.4-0.1,48.5-2.2c25.9-1.9,44.7-16.2,64.4-28.8c34.2-22,68.4-12.6,100.1,2.6c32,15.3,64.2,24.4,100.7,19.6
		c4.8-0.6,10.6-2.2,10.1,3.9c-1.1,3.9-4.4,7-8.8,8.2c-17.8-0.1-35.6-1-53.2-2.7c-21.1-3.1-41.3-9.9-59.4-19.9
		c-16.8-8.3-35.9-12.3-55.1-11.7c-13.2,1.1-25.6,6.1-35.2,14.1c-30.1,20.9-67.9,31.7-106.3,30.4c-16.8-1.1-33.1-5.3-47.8-12.4
		c-19.6-8.9-38.3-19.1-56-30.6c-9.1-5.6-14.3-3.2-20.7,2.6c-19.1,18.6-46,29.6-74.5,30.6c-26.8,1.5-53.5-3.9-76.9-15.3
		c-16.6-7.2-31.8-16.5-45.3-27.6c-2.6-3.4-7.8-4.2-11.7-2c-1.2,0.7-2.2,1.7-2.8,2.9c-14.5,21.9-40.7,29.3-64.4,39.4
		c-34.7,14.8-72.2,15-109.7,13.9c-2.9,0.1-5.7-0.4-8.4-1.3c-2.8-1.4-5.4-3.1-7.7-5.1c2.9-2.3,6.2-4.1,9.8-5.4
		C263.6,205.1,267.9,205.4,272.1,206.2z"/>
	<path class="st0" d="M264.8,1037c47.6,3.9,95.3-6.3,135.5-29c6.2-4.1,11.7-8.9,16.5-14.2c4.1-3.9,7.7-8.1,11.6-12.1
		c4-4.8,11.7-5.9,17.2-2.4c0.6,0.4,1.1,0.8,1.6,1.2c10.8,6.9,21.9,13.6,32.7,20.4c16.9,10.9,36.4,18.3,57,21.8
		c26.3,4.3,52,4.5,75.1-8.5c11.5-6.8,22-14.8,31.2-23.8c6.3-6,9.8-7.2,18.4-2.5c32.1,17.6,61.6,40.6,101,44.9
		c16.2,0.7,32.4-0.1,48.5-2.2c25.9-1.9,44.7-16.2,64.4-28.8c34.2-22,68.4-12.6,100.1,2.6c32,15.3,64.2,24.4,100.7,19.6
		c4.8-0.6,10.6-2.2,10.1,3.9c-1.1,3.9-4.4,7-8.8,8.2c-17.8-0.1-35.6-1-53.2-2.7c-21.1-3.1-41.3-9.9-59.4-19.9
		c-16.8-8.3-35.9-12.3-55.1-11.7c-13.2,1.1-25.6,6.1-35.2,14.1c-30.1,20.9-67.9,31.7-106.3,30.4c-16.8-1.1-33.1-5.3-47.8-12.4
		c-19.6-8.9-38.3-19.1-56-30.6c-9.1-5.6-14.3-3.2-20.7,2.6c-19.1,18.6-46,29.6-74.5,30.6c-26.8,1.5-53.5-3.9-76.9-15.3
		c-16.6-7.2-31.8-16.5-45.3-27.6c-2.6-3.4-7.8-4.2-11.7-2c-1.2,0.7-2.2,1.7-2.8,2.9c-14.5,21.9-40.7,29.3-64.4,39.4
		c-34.7,14.8-72.2,15-109.7,13.9c-2.9,0.1-5.7-0.4-8.4-1.3c-2.8-1.4-5.4-3.1-7.7-5.1c2.9-2.3,6.2-4.1,9.8-5.4
		C256.4,1035.8,260.7,1036.2,264.8,1037z"/>
</g>
</svg>
